<svg width="147" height="51" viewBox="0 0 147 51" fill="none" xmlns="http://www.w3.org/2000/svg">
<path d="M11.593 27.9167L8.87187 27.8883C8.09712 27.8883 7.50188 27.8978 7.08616 27.9167C6.78382 30.5622 6.63265 32.7069 6.63265 34.3509C6.63265 35.9949 6.68934 37.1476 6.80271 37.809C6.19803 37.8468 5.8012 37.8656 5.61224 37.8656C4.53514 37.8656 3.76039 37.6767 3.28798 37.2988C2.81557 36.9208 2.57936 36.2595 2.57936 35.3146C2.57936 34.3509 2.84391 32.055 3.37301 28.4269C2.76833 28.6158 2.32426 28.7765 2.04081 28.9087C2.00302 28.493 1.98412 28.1812 1.98412 27.9734C1.98412 26.6695 2.57936 25.857 3.76984 25.5357C4.12887 22.9469 4.34618 20.7077 4.42176 18.818C3.45805 18.818 2.84391 18.6858 2.57936 18.4212C2.33371 18.1567 2.21088 17.5709 2.21088 16.6639C2.28647 15.8135 2.36205 15.2561 2.43764 14.9915C4.57294 15.275 6.91609 15.4167 9.46711 15.4167C12.0181 15.4167 14.4841 15.1899 16.8651 14.7364C16.6005 16.7205 15.3911 17.911 13.2369 18.3078C12.0654 18.5346 10.393 18.6858 8.21995 18.7614C8.20105 19.007 7.92705 21.2084 7.39795 25.3657C8.49394 25.4035 9.24035 25.4223 9.63718 25.4223C11.4323 25.4223 12.7078 25.1106 13.4637 24.487C13.5015 24.8649 13.5204 25.1484 13.5204 25.3373C13.5204 27.0569 12.8779 27.9167 11.593 27.9167ZM24.9583 23.1831C23.7301 23.1831 22.6341 24.0146 21.6704 25.6775C20.7066 27.3214 20.2248 28.9654 20.2248 30.6094C20.2248 34.0486 21.1129 35.7681 22.8892 35.7681C24.1552 35.7681 25.1851 34.9461 25.9788 33.3022C26.7724 31.6393 27.1692 29.778 27.1692 27.7183C27.1692 24.6948 26.4323 23.1831 24.9583 23.1831ZM26.7157 21.114C27.8495 21.114 28.8132 21.6714 29.6069 22.7863C30.4005 23.9012 30.7973 25.394 30.7973 27.2648C30.7973 29.3623 30.3722 31.2897 29.5218 33.0471C28.577 35.0312 27.2354 36.4012 25.4969 37.157C24.5143 37.5916 23.4372 37.809 22.2656 37.809C20.6216 37.809 19.1855 37.1759 17.9572 35.9099C16.7478 34.6249 16.1432 32.792 16.1432 30.411C16.1432 28.0112 16.7289 25.9042 17.9005 24.0902C19.0721 22.2572 20.6216 21.1045 22.549 20.6321C22.7569 20.6321 22.9459 20.6982 23.1159 20.8305C23.3049 20.9439 23.3994 21.0667 23.3994 21.199C21.4908 22.5217 20.3476 24.3641 19.9697 26.7262C20.3665 25.668 20.8484 24.7515 21.4153 23.9768C22.0011 23.202 22.6057 22.6162 23.2293 22.2194C24.4198 21.4824 25.5819 21.114 26.7157 21.114ZM42.4523 23.1831C41.224 23.1831 40.128 24.0146 39.1643 25.6775C38.2006 27.3214 37.7187 28.9654 37.7187 30.6094C37.7187 34.0486 38.6069 35.7681 40.3831 35.7681C41.6492 35.7681 42.6791 34.9461 43.4727 33.3022C44.2664 31.6393 44.6632 29.778 44.6632 27.7183C44.6632 24.6948 43.9262 23.1831 42.4523 23.1831ZM44.2097 21.114C45.3435 21.114 46.3072 21.6714 47.1008 22.7863C47.8945 23.9012 48.2913 25.394 48.2913 27.2648C48.2913 29.3623 47.8661 31.2897 47.0158 33.0471C46.071 35.0312 44.7293 36.4012 42.9909 37.157C42.0082 37.5916 40.9311 37.809 39.7596 37.809C38.1156 37.809 36.6794 37.1759 35.4512 35.9099C34.2418 34.6249 33.6371 32.792 33.6371 30.411C33.6371 28.0112 34.2229 25.9042 35.3945 24.0902C36.5661 22.2572 38.1156 21.1045 40.043 20.6321C40.2509 20.6321 40.4398 20.6982 40.6099 20.8305C40.7989 20.9439 40.8933 21.0667 40.8933 21.199C38.9848 22.5217 37.8416 24.3641 37.4636 26.7262C37.8605 25.668 38.3423 24.7515 38.9092 23.9768C39.495 23.202 40.0997 22.6162 40.7233 22.2194C41.9138 21.4824 43.0759 21.114 44.2097 21.114ZM54.9293 31.6582C54.9293 33.9068 55.6095 35.0312 56.9701 35.0312C57.6881 35.0312 58.3873 34.6438 59.0676 33.8691C59.7478 33.0943 60.2958 32.055 60.7116 30.7511C61.1462 29.4473 61.5147 28.0584 61.817 26.5845C62.1382 25.0917 62.3745 23.5138 62.5256 21.8509C62.7902 18.6385 62.9224 16.1348 62.9224 14.3396C62.9224 12.5255 62.8469 11.165 62.6957 10.258C64.0562 10.5603 65.0105 11.2028 65.5585 12.1854C66.1065 13.168 66.3805 14.4057 66.3805 15.8985C66.3805 17.3914 66.0593 20.1691 65.4168 24.2319C64.7932 28.2946 64.4814 31.2613 64.4814 33.1321C64.4814 35.0028 64.5664 36.5901 64.7365 37.894C63.3949 37.535 62.4689 36.8925 61.9587 35.9666C61.4674 35.0217 61.2218 33.8407 61.2218 32.4235C60.636 34.0486 59.7573 35.3335 58.5857 36.2783C57.4141 37.2232 56.2048 37.6956 54.9576 37.6956C53.7104 37.6956 52.69 37.2232 51.8964 36.2783C51.1216 35.3146 50.7343 33.9068 50.7343 32.055C50.7343 29.126 51.5373 26.6128 53.1435 24.5153C54.7497 22.3989 56.6488 21.3407 58.8408 21.3407C59.4644 21.3407 60.447 21.4919 61.7887 21.7942C60.6171 22.0966 59.5683 22.6257 58.6424 23.3815C57.7354 24.1185 57.0268 24.9688 56.5166 25.9326C55.4584 27.8411 54.9293 29.7496 54.9293 31.6582ZM82.0327 17.6843V20.3203H76.789V37.3838H73.5577V20.3203H68.2856V17.6843H82.0327ZM86.9492 19.6967C86.3634 19.6967 85.8721 19.4983 85.4753 19.1015C85.0784 18.7047 84.88 18.2134 84.88 17.6276C84.88 17.0418 85.0784 16.5505 85.4753 16.1537C85.8721 15.7568 86.3634 15.5584 86.9492 15.5584C87.5161 15.5584 87.9979 15.7568 88.3948 16.1537C88.7916 16.5505 88.99 17.0418 88.99 17.6276C88.99 18.2134 88.7916 18.7047 88.3948 19.1015C87.9979 19.4983 87.5161 19.6967 86.9492 19.6967ZM88.5365 21.7659V37.3838H85.3052V21.7659H88.5365ZM111.685 21.5108C112.913 21.5108 114.009 21.7659 114.973 22.2761C115.955 22.7863 116.721 23.5422 117.269 24.5437C117.836 25.5452 118.119 26.7545 118.119 28.1718V37.3838H114.916V28.6536C114.916 27.2553 114.566 26.1877 113.867 25.4507C113.168 24.6948 112.214 24.3169 111.004 24.3169C109.795 24.3169 108.831 24.6948 108.113 25.4507C107.414 26.1877 107.065 27.2553 107.065 28.6536V37.3838H103.862V28.6536C103.862 27.2553 103.512 26.1877 102.813 25.4507C102.114 24.6948 101.159 24.3169 99.9501 24.3169C98.7407 24.3169 97.777 24.6948 97.0589 25.4507C96.3598 26.1877 96.0102 27.2553 96.0102 28.6536V37.3838H92.7789V21.7659H96.0102V23.5516C96.5393 22.9091 97.2101 22.4084 98.0226 22.0493C98.8352 21.6903 99.7044 21.5108 100.63 21.5108C101.878 21.5108 102.992 21.7753 103.975 22.3044C104.958 22.8335 105.713 23.5988 106.243 24.6004C106.715 23.6555 107.452 22.9091 108.453 22.3611C109.455 21.7942 110.532 21.5108 111.685 21.5108ZM136.545 29.1922C136.545 29.778 136.507 30.3071 136.431 30.7795H124.498C124.593 32.0267 125.056 33.0282 125.887 33.784C126.719 34.5399 127.739 34.9178 128.948 34.9178C130.687 34.9178 131.915 34.1903 132.633 32.7353H136.12C135.647 34.1714 134.787 35.3524 133.54 36.2783C132.312 37.1854 130.781 37.6389 128.948 37.6389C127.456 37.6389 126.114 37.3082 124.923 36.6468C123.752 35.9666 122.826 35.0217 122.146 33.8124C121.484 32.5841 121.154 31.1669 121.154 29.5607C121.154 27.9545 121.475 26.5467 122.117 25.3373C122.779 24.109 123.695 23.1642 124.867 22.5029C126.057 21.8415 127.418 21.5108 128.948 21.5108C130.422 21.5108 131.736 21.832 132.888 22.4745C134.041 23.117 134.939 24.024 135.581 25.1956C136.224 26.3483 136.545 27.6805 136.545 29.1922ZM133.172 28.1718C133.153 26.9813 132.728 26.027 131.896 25.309C131.065 24.5909 130.035 24.2319 128.807 24.2319C127.692 24.2319 126.738 24.5909 125.944 25.309C125.15 26.0081 124.678 26.9624 124.527 28.1718H133.172Z" fill="#396C03"/>
<path d="M140.508 0.137939H138.534C138.251 0.137939 138.023 0.365871 138.023 0.648506V11.9539C138.023 12.118 138.101 12.2685 138.233 12.3642L145.021 17.3149C145.249 17.479 145.568 17.4334 145.732 17.2054L146.904 15.6054V15.6008C147.068 15.3729 147.018 15.0538 146.79 14.8897L141.014 10.714V0.648506C141.018 0.365871 140.786 0.137939 140.508 0.137939Z" fill="#FF8B00"/>
</svg>
