<svg width="24" height="25" viewBox="0 0 24 25" fill="none" xmlns="http://www.w3.org/2000/svg">
<path d="M21 21.0944L15 15.0944M17 10.0944C17 11.0136 16.8189 11.9239 16.4672 12.7731C16.1154 13.6224 15.5998 14.3941 14.9497 15.0441C14.2997 15.6941 13.5281 16.2097 12.6788 16.5615C11.8295 16.9133 10.9193 17.0944 10 17.0944C9.08075 17.0944 8.1705 16.9133 7.32122 16.5615C6.47194 16.2097 5.70026 15.6941 5.05025 15.0441C4.40024 14.3941 3.88463 13.6224 3.53284 12.7731C3.18106 11.9239 3 11.0136 3 10.0944C3 8.23784 3.7375 6.45737 5.05025 5.14461C6.36301 3.83186 8.14348 3.09436 10 3.09436C11.8565 3.09436 13.637 3.83186 14.9497 5.14461C16.2625 6.45737 17 8.23784 17 10.0944Z" stroke="white" stroke-width="2" stroke-linecap="round" stroke-linejoin="round"/>
</svg>
